<?xml version="1.0" encoding="UTF-8" standalone="no"?>
<!-- Created with Inkscape (http://www.inkscape.org/) -->

<svg
   xmlns:dc="http://purl.org/dc/elements/1.1/"
   xmlns:cc="http://creativecommons.org/ns#"
   xmlns:rdf="http://www.w3.org/1999/02/22-rdf-syntax-ns#"
   xmlns:svg="http://www.w3.org/2000/svg"
   xmlns="http://www.w3.org/2000/svg"
   xmlns:sodipodi="http://sodipodi.sourceforge.net/DTD/sodipodi-0.dtd"
   xmlns:inkscape="http://www.inkscape.org/namespaces/inkscape"
   width="148.77679mm"
   height="112.31165mm"
   viewBox="0 0 148.7768 112.31165"
   version="1.1"
   id="svg8"
   inkscape:version="0.92.4 (5da689c313, 2019-01-14)"
   sodipodi:docname="the-puzzle.svg">
  <defs
     id="defs2" />
  <sodipodi:namedview
     id="base"
     pagecolor="#ffffff"
     bordercolor="#666666"
     borderopacity="1.0"
     inkscape:pageopacity="0.0"
     inkscape:pageshadow="2"
     inkscape:zoom="1.4142136"
     inkscape:cx="231.43532"
     inkscape:cy="249.68584"
     inkscape:document-units="mm"
     inkscape:current-layer="g1056"
     showgrid="false"
     inkscape:snap-global="false"
     inkscape:window-width="1920"
     inkscape:window-height="991"
     inkscape:window-x="-9"
     inkscape:window-y="-9"
     inkscape:window-maximized="1"
     fit-margin-top="0"
     fit-margin-left="0"
     fit-margin-right="0"
     fit-margin-bottom="0" />
  <metadata
     id="metadata5">
    <rdf:RDF>
      <cc:Work
         rdf:about="">
        <dc:format>image/svg+xml</dc:format>
        <dc:type
           rdf:resource="http://purl.org/dc/dcmitype/StillImage" />
        <dc:title></dc:title>
      </cc:Work>
    </rdf:RDF>
  </metadata>
  <g
     inkscape:groupmode="layer"
     id="layer2"
     inkscape:label="PUZZLES"
     style="display:inline"
     transform="translate(-25.208927,-78.141498)">
    <g
       id="g1036"
       transform="matrix(0.93453517,0.26986119,-0.3558708,0.70866946,53.531687,14.644562)">
      <rect
         style="opacity:1;vector-effect:none;fill:#ffffff;fill-opacity:1;fill-rule:nonzero;stroke:#000000;stroke-width:0.71337074;stroke-linecap:butt;stroke-linejoin:round;stroke-miterlimit:4;stroke-dasharray:none;stroke-dashoffset:0;stroke-opacity:1;paint-order:fill markers stroke"
         id="rect951"
         width="38.706459"
         height="37.041668"
         x="80.244057"
         y="76.54052" />
      <rect
         style="opacity:1;vector-effect:none;fill:#ffffff;fill-opacity:1;fill-rule:nonzero;stroke:#000000;stroke-width:0.71337074;stroke-linecap:butt;stroke-linejoin:round;stroke-miterlimit:4;stroke-dasharray:none;stroke-dashoffset:0;stroke-opacity:1;paint-order:fill markers stroke"
         id="rect955"
         width="38.706459"
         height="37.041668"
         x="41.53759"
         y="113.58219" />
      <rect
         style="opacity:1;vector-effect:none;fill:#ffffff;fill-opacity:1;fill-rule:nonzero;stroke:#000000;stroke-width:0.71337074;stroke-linecap:butt;stroke-linejoin:round;stroke-miterlimit:4;stroke-dasharray:none;stroke-dashoffset:0;stroke-opacity:1;paint-order:fill markers stroke"
         id="rect959"
         width="38.706459"
         height="37.041668"
         x="118.95051"
         y="113.58219" />
      <rect
         style="opacity:1;vector-effect:none;fill:#ffffff;fill-opacity:1;fill-rule:nonzero;stroke:#000000;stroke-width:0.71337074;stroke-linecap:butt;stroke-linejoin:round;stroke-miterlimit:4;stroke-dasharray:none;stroke-dashoffset:0;stroke-opacity:1;paint-order:fill markers stroke"
         id="rect963"
         width="38.706459"
         height="37.041668"
         x="80.244057"
         y="150.62386" />
      <path
         inkscape:connector-curvature="0"
         id="rect965"
         transform="matrix(0.26458333,0,0,0.26458333,64.143116,72.661464)"
         d="m 282.50977,253.8125 c -5.59211,0.32219 -11.08588,4.5701 -14.47071,15.20703 -1.73358,9.18496 3.97973,17.76676 9.40039,25.64063 h -70.29297 v 86.70312 c -8.61814,-6.87169 -12.48982,-12.20771 -20.46875,-12.39648 -15.82882,0.31913 -33.73358,23.72561 -5.70703,33.7539 9.19855,2.07711 18.05567,-3.44339 26.17578,-8.62109 v 40.56055 H 353.4375 v -140 h -63.29883 c 6.64213,-9.01919 11.92964,-13.08458 11.83399,-21.13477 -0.55083,-9.87968 -10.14271,-20.24988 -19.46289,-19.71289 z"
         style="opacity:1;vector-effect:none;fill:#ffffff;fill-opacity:1;fill-rule:nonzero;stroke:#000000;stroke-width:2.69620442;stroke-linecap:butt;stroke-linejoin:round;stroke-miterlimit:4;stroke-dasharray:none;stroke-dashoffset:0;stroke-opacity:1;paint-order:fill markers stroke" />
      <path
         transform="matrix(0.26458333,0,0,0.26458333,64.143116,72.661464)"
         inkscape:connector-curvature="0"
         id="rect957"
         d="m 130.00195,119.86328 c -5.24249,-0.019 -10.41433,4.32595 -13.20898,16.02344 -0.87531,6.74916 1.66817,12.96413 5.01367,18.77344 H 60.853516 v 68.94531 c -10.26675,-5.93731 -14.880468,-11.12998 -23.128907,-10.20508 -15.64105,2.45167 -30.2247943,28.05927 -1.101562,34.21484 9.165643,0.79723 17.029222,-5.52682 24.230469,-11.61718 v 58.66211 h 62.355464 c -4.22142,7.75983 -7.51327,12.20802 -6.81054,19.36718 2.13757,15.63821 24.26545,30.19281 29.54101,1.0625 0.55951,-7.58634 -3.1018,-14.26946 -7.36328,-20.42968 h 68.57031 v -68.43555 c 10.04982,5.52107 14.78271,10.38014 22.85547,9.24219 15.56521,-2.89445 29.41702,-28.90365 0.13086,-34.23047 -8.79348,-0.51399 -16.20457,5.46389 -22.98633,11.49609 v -58.07226 h -66.98242 c 3.7162,-5.83742 6.32897,-9.85662 6.06446,-16.07813 -0.75354,-9.34118 -8.56447,-18.69097 -16.22657,-18.71875 z"
         style="opacity:1;vector-effect:none;fill:#020202;fill-opacity:1;fill-rule:nonzero;stroke:#000000;stroke-width:2.69620442;stroke-linecap:butt;stroke-linejoin:round;stroke-miterlimit:4;stroke-dasharray:none;stroke-dashoffset:0;stroke-opacity:1;paint-order:fill markers stroke" />
      <path
         inkscape:connector-curvature="0"
         id="rect953"
         transform="matrix(0.26458333,0,0,0.26458333,64.143116,72.661464)"
         d="m 207.14648,14.660156 v 61.480469 c -8.78106,-6.393342 -12.73995,-11.563728 -20.39453,-11.386719 -14.86514,1.011719 -30.55333,24.319386 -3.71484,32.716797 8.71885,1.582696 16.74983,-4.075018 24.10937,-9.400391 v 66.589848 h 93.3379 c -5.42322,10.95407 -10.51465,15.88037 -9.08594,24.1914 3.36311,15.47071 29.77863,28.53131 34.21875,-0.90234 0.25654,-9.09876 -6.37134,-16.51552 -12.8086,-23.28906 H 353.4375 V 14.660156 Z"
         style="opacity:1;vector-effect:none;fill:#ffffff;fill-opacity:1;fill-rule:nonzero;stroke:#000000;stroke-width:2.69620442;stroke-linecap:butt;stroke-linejoin:round;stroke-miterlimit:4;stroke-dasharray:none;stroke-dashoffset:0;stroke-opacity:1;paint-order:fill markers stroke" />
      <path
         transform="matrix(0.26458333,0,0,0.26458333,64.143116,72.661464)"
         inkscape:connector-curvature="0"
         id="rect949"
         d="M -85.4375,14.660156 V 154.66016 h 59.226562 c -4.958247,10.88352 -9.737609,15.97552 -8.02539,24.13476 3.927076,15.33726 30.804172,27.42214 34.16406238,-2.1543 C -0.14570221,167.9194 -6.4780056,160.97391 -12.884766,154.66016 H 60.853516 V 81.367188 c 8.932428,5.773519 13.187892,10.584459 20.732422,9.960937 14.77898,-1.891491 29.056822,-26.089846 1.767578,-32.880859 -8.380574,-1.0125 -15.742489,4.498681 -22.5,9.996093 V 14.660156 Z"
         style="opacity:1;vector-effect:none;fill:#ffffff;fill-opacity:1;fill-rule:nonzero;stroke:#000000;stroke-width:2.69620442;stroke-linecap:butt;stroke-linejoin:round;stroke-miterlimit:4;stroke-dasharray:none;stroke-dashoffset:0;stroke-opacity:1;paint-order:fill markers stroke" />
      <path
         transform="matrix(0.26458333,0,0,0.26458333,64.143116,72.661464)"
         inkscape:connector-curvature="0"
         id="rect961"
         d="m -24.605469,254.92578 c -6.068901,-0.12841 -12.068033,4.11089 -15.328125,15.75586 -1.330198,8.71682 3.946252,16.65928 9.328125,23.97852 H -85.4375 v 140 H 60.853516 v -60.5918 c 9.801008,5.43731 14.509693,10.1671 22.484375,9.04297 15.565205,-2.89444 29.417019,-28.90561 0.130859,-34.23242 -8.632624,-0.50459 -15.934354,5.24822 -22.615234,11.16601 V 294.66016 H -16.34375 c 6.040716,-8.64766 10.848488,-12.8843 10.4824219,-20.66797 -0.8524606,-9.36154 -9.8742079,-18.87874 -18.7441409,-19.06641 z"
         style="opacity:1;vector-effect:none;fill:#ffffff;fill-opacity:1;fill-rule:nonzero;stroke:#000000;stroke-width:2.69620442;stroke-linecap:butt;stroke-linejoin:round;stroke-miterlimit:4;stroke-dasharray:none;stroke-dashoffset:0;stroke-opacity:1;paint-order:fill markers stroke" />
    </g>
    <g
       transform="matrix(0.93453517,0.26986119,-0.3558708,0.70866946,53.531687,12.960764)"
       id="g1056">
      <rect
         y="76.54052"
         x="80.244057"
         height="37.041668"
         width="38.706459"
         id="rect1038"
         style="opacity:1;vector-effect:none;fill:#ffffff;fill-opacity:1;fill-rule:nonzero;stroke:#000000;stroke-width:0.71337074;stroke-linecap:butt;stroke-linejoin:round;stroke-miterlimit:4;stroke-dasharray:none;stroke-dashoffset:0;stroke-opacity:1;paint-order:fill markers stroke" />
      <rect
         y="113.58219"
         x="41.53759"
         height="37.041668"
         width="38.706459"
         id="rect1040"
         style="opacity:1;vector-effect:none;fill:#ffffff;fill-opacity:1;fill-rule:nonzero;stroke:#000000;stroke-width:0.71337074;stroke-linecap:butt;stroke-linejoin:round;stroke-miterlimit:4;stroke-dasharray:none;stroke-dashoffset:0;stroke-opacity:1;paint-order:fill markers stroke" />
      <rect
         y="113.58219"
         x="118.95051"
         height="37.041668"
         width="38.706459"
         id="rect1042"
         style="opacity:1;vector-effect:none;fill:#ffffff;fill-opacity:1;fill-rule:nonzero;stroke:#000000;stroke-width:0.71337074;stroke-linecap:butt;stroke-linejoin:round;stroke-miterlimit:4;stroke-dasharray:none;stroke-dashoffset:0;stroke-opacity:1;paint-order:fill markers stroke" />
      <rect
         y="150.62386"
         x="80.244057"
         height="37.041668"
         width="38.706459"
         id="rect1044"
         style="opacity:1;vector-effect:none;fill:#ffffff;fill-opacity:1;fill-rule:nonzero;stroke:#000000;stroke-width:0.71337074;stroke-linecap:butt;stroke-linejoin:round;stroke-miterlimit:4;stroke-dasharray:none;stroke-dashoffset:0;stroke-opacity:1;paint-order:fill markers stroke" />
      <path
         style="opacity:1;vector-effect:none;fill:#ffffff;fill-opacity:1;fill-rule:nonzero;stroke:#000000;stroke-width:2.69620442;stroke-linecap:butt;stroke-linejoin:round;stroke-miterlimit:4;stroke-dasharray:none;stroke-dashoffset:0;stroke-opacity:1;paint-order:fill markers stroke"
         d="m 282.50977,253.8125 c -5.59211,0.32219 -11.08588,4.5701 -14.47071,15.20703 -1.73358,9.18496 3.97973,17.76676 9.40039,25.64063 h -70.29297 v 86.70312 c -8.61814,-6.87169 -12.48982,-12.20771 -20.46875,-12.39648 -15.82882,0.31913 -33.73358,23.72561 -5.70703,33.7539 9.19855,2.07711 18.05567,-3.44339 26.17578,-8.62109 v 40.56055 H 353.4375 v -140 h -63.29883 c 6.64213,-9.01919 11.92964,-13.08458 11.83399,-21.13477 -0.55083,-9.87968 -10.14271,-20.24988 -19.46289,-19.71289 z"
         transform="matrix(0.26458333,0,0,0.26458333,64.143116,72.661464)"
         id="path1046"
         inkscape:connector-curvature="0" />
      <path
         style="opacity:1;vector-effect:none;fill:#020202;fill-opacity:1;fill-rule:nonzero;stroke:#000000;stroke-width:2.69620442;stroke-linecap:butt;stroke-linejoin:round;stroke-miterlimit:4;stroke-dasharray:none;stroke-dashoffset:0;stroke-opacity:1;paint-order:fill markers stroke"
         d="m 130.00195,119.86328 c -5.24249,-0.019 -10.41433,4.32595 -13.20898,16.02344 -0.87531,6.74916 1.66817,12.96413 5.01367,18.77344 H 60.853516 v 68.94531 c -10.26675,-5.93731 -14.880468,-11.12998 -23.128907,-10.20508 -15.64105,2.45167 -30.2247943,28.05927 -1.101562,34.21484 9.165643,0.79723 17.029222,-5.52682 24.230469,-11.61718 v 58.66211 h 62.355464 c -4.22142,7.75983 -7.51327,12.20802 -6.81054,19.36718 2.13757,15.63821 24.26545,30.19281 29.54101,1.0625 0.55951,-7.58634 -3.1018,-14.26946 -7.36328,-20.42968 h 68.57031 v -68.43555 c 10.04982,5.52107 14.78271,10.38014 22.85547,9.24219 15.56521,-2.89445 29.41702,-28.90365 0.13086,-34.23047 -8.79348,-0.51399 -16.20457,5.46389 -22.98633,11.49609 v -58.07226 h -66.98242 c 3.7162,-5.83742 6.32897,-9.85662 6.06446,-16.07813 -0.75354,-9.34118 -8.56447,-18.69097 -16.22657,-18.71875 z"
         id="path1048"
         inkscape:connector-curvature="0"
         transform="matrix(0.26458333,0,0,0.26458333,64.143116,72.661464)" />
      <path
         style="opacity:1;vector-effect:none;fill:#ffffff;fill-opacity:1;fill-rule:nonzero;stroke:#000000;stroke-width:2.69620442;stroke-linecap:butt;stroke-linejoin:round;stroke-miterlimit:4;stroke-dasharray:none;stroke-dashoffset:0;stroke-opacity:1;paint-order:fill markers stroke"
         d="m 207.14648,14.660156 v 61.480469 c -8.78106,-6.393342 -12.73995,-11.563728 -20.39453,-11.386719 -14.86514,1.011719 -30.55333,24.319386 -3.71484,32.716797 8.71885,1.582696 16.74983,-4.075018 24.10937,-9.400391 v 66.589848 h 93.3379 c -5.42322,10.95407 -10.51465,15.88037 -9.08594,24.1914 3.36311,15.47071 29.77863,28.53131 34.21875,-0.90234 0.25654,-9.09876 -6.37134,-16.51552 -12.8086,-23.28906 H 353.4375 V 14.660156 Z"
         transform="matrix(0.26458333,0,0,0.26458333,64.143116,72.661464)"
         id="path1050"
         inkscape:connector-curvature="0" />
      <path
         style="opacity:1;vector-effect:none;fill:#ffffff;fill-opacity:1;fill-rule:nonzero;stroke:#000000;stroke-width:2.69620442;stroke-linecap:butt;stroke-linejoin:round;stroke-miterlimit:4;stroke-dasharray:none;stroke-dashoffset:0;stroke-opacity:1;paint-order:fill markers stroke"
         d="M -85.4375,14.660156 V 154.66016 h 59.226562 c -4.958247,10.88352 -9.737609,15.97552 -8.02539,24.13476 3.927076,15.33726 30.804172,27.42214 34.16406238,-2.1543 C -0.14570221,167.9194 -6.4780056,160.97391 -12.884766,154.66016 H 60.853516 V 81.367188 c 8.932428,5.773519 13.187892,10.584459 20.732422,9.960937 14.77898,-1.891491 29.056822,-26.089846 1.767578,-32.880859 -8.380574,-1.0125 -15.742489,4.498681 -22.5,9.996093 V 14.660156 Z"
         id="path1052"
         inkscape:connector-curvature="0"
         transform="matrix(0.26458333,0,0,0.26458333,64.143116,72.661464)" />
      <path
         style="opacity:1;vector-effect:none;fill:#ffffff;fill-opacity:1;fill-rule:nonzero;stroke:#000000;stroke-width:2.69620442;stroke-linecap:butt;stroke-linejoin:round;stroke-miterlimit:4;stroke-dasharray:none;stroke-dashoffset:0;stroke-opacity:1;paint-order:fill markers stroke"
         d="m -24.605469,254.92578 c -6.068901,-0.12841 -12.068033,4.11089 -15.328125,15.75586 -1.330198,8.71682 3.946252,16.65928 9.328125,23.97852 H -85.4375 v 140 H 60.853516 v -60.5918 c 9.801008,5.43731 14.509693,10.1671 22.484375,9.04297 15.565205,-2.89444 29.417019,-28.90561 0.130859,-34.23242 -8.632624,-0.50459 -15.934354,5.24822 -22.615234,11.16601 V 294.66016 H -16.34375 c 6.040716,-8.64766 10.848488,-12.8843 10.4824219,-20.66797 -0.8524606,-9.36154 -9.8742079,-18.87874 -18.7441409,-19.06641 z"
         id="path1054"
         inkscape:connector-curvature="0"
         transform="matrix(0.26458333,0,0,0.26458333,64.143116,72.661464)" />
    </g>
  </g>
</svg>
